Coordinates
version=1
nRows=27
nColumns=33
inDegrees=yes

Units are S.I. units (second, meters, Newtons, ...)
Angles are in degrees.

endheader
time	ground_thorax_rot_x	ground_thorax_rot_y	ground_thorax_rot_z	ground_thorax_tx	ground_thorax_ty	ground_thorax_tz	clav_prot_r	clav_elev_r	scapula_abduction_r	scapula_elevation_r	scapula_upward_rot_r	scapula_winging_r	shoulder_elv_r	plane_of_elev_r	axial_rot_r	elbow_flexion_r	pro_sup_r	wrist_flex_r	wrist_dev_r	clav_prot_l	clav_elev_l	scapula_abduction_l	scapula_elevation_l	scapula_upward_rot_l	scapula_winging_l	shoulder_elv_l	plane_of_elev_l	axial_rot_l	elbow_flexion_l	pro_sup_l	wrist_flex_l	wrist_dev_l	
3.0300	24.456992	44.972117	-3.802023	0.018121	1.013739	-0.054917	-28.309183	16.051661	-20.690236	8.926603	45.000000	-16.956277	74.404865	-67.096800	96.158974	74.690336	-41.671639	19.262335	-0.883242	25.933260	-32.773759	-45.000000	6.740356	-38.094564	7.538947	63.540354	7.366500	-14.257495	43.103477	3.254344	42.434329	-2.878450	
3.0400	24.331486	44.850421	-3.706356	0.018375	1.013667	-0.055134	-28.142290	16.093806	-20.434231	8.975970	45.000000	-16.881166	72.465293	-66.874265	94.539284	73.890867	-42.437600	18.851077	-0.775679	25.972572	-32.999124	-45.000000	6.894102	-38.196740	7.364363	63.410346	7.817407	-13.619531	41.822869	3.630246	42.811080	-2.857467	
3.0500	24.198757	44.726872	-3.607401	0.018620	1.013593	-0.055321	-27.977014	16.150464	-20.189037	9.036556	45.000000	-16.807961	70.460484	-66.639693	92.859298	73.064878	-43.165415	18.440065	-0.684184	26.008595	-33.219459	-45.000000	7.033868	-38.325732	7.193996	63.311520	8.267985	-12.939180	40.567608	4.019985	43.154421	-2.844921	
3.0600	24.061110	44.606892	-3.493397	0.018861	1.013520	-0.055480	-27.811991	16.216768	-19.949381	9.104786	45.000000	-16.735537	68.481595	-66.385249	91.211235	72.220733	-43.786647	18.037829	-0.622057	26.042020	-33.443624	-45.000000	7.162971	-38.492510	7.021850	63.256466	8.701164	-12.241088	39.357788	4.423457	43.443774	-2.825731	
3.0700	23.925255	44.488931	-3.379102	0.019095	1.013424	-0.055607	-27.646451	16.307751	-19.722831	9.192496	45.000000	-16.664255	66.454234	-66.120320	89.511414	71.353869	-44.356485	17.633774	-0.570605	26.071215	-33.661923	-45.000000	7.275311	-38.691294	6.855408	63.231561	9.147852	-11.498928	38.168151	4.844099	43.729476	-2.813881	
3.0800	23.798133	44.374137	-3.263233	0.019322	1.013297	-0.055704	-27.475706	16.427675	-19.504067	9.303603	45.000000	-16.591857	64.415504	-65.840247	87.798924	70.464650	-44.847708	17.233935	-0.529644	26.096611	-33.881365	-45.000000	7.373315	-38.931381	6.689834	63.251466	9.600949	-10.732759	37.011885	5.284892	43.996318	-2.807590	
3.0900	23.677857	44.266754	-3.151809	0.019549	1.013164	-0.055779	-27.306229	16.551765	-19.289254	9.417876	45.000000	-16.520745	62.410849	-65.555568	86.117613	69.559038	-45.291553	16.836695	-0.488922	26.120415	-34.102483	-45.000000	7.465901	-39.190412	6.523070	63.303801	10.043098	-9.954753	35.886260	5.725383	44.238280	-2.809315	
3.1000	23.572367	44.166791	-3.050886	0.019778	1.013011	-0.055838	-27.137119	16.683513	-19.078987	9.538169	45.000000	-16.450580	60.450019	-65.260787	84.479976	68.640558	-45.694694	16.441772	-0.442272	26.143044	-34.326540	-45.000000	7.554831	-39.466595	6.354128	63.388763	10.478302	-9.174186	34.791712	6.164365	44.462365	-2.810274	
3.1100	23.478817	44.082366	-2.959428	0.020013	1.012866	-0.055885	-26.972990	16.808870	-18.872989	9.653005	45.000000	-16.382592	58.562637	-64.963534	82.913282	67.700571	-46.083782	16.048220	-0.382284	26.165321	-34.556937	-45.000000	7.644411	-39.756236	6.179904	63.501979	10.898895	-8.384166	33.728071	6.588000	44.657374	-2.802435	
3.1200	23.398949	44.013692	-2.879257	0.020252	1.012722	-0.055921	-26.813411	16.932614	-18.673456	9.766198	45.000000	-16.316701	56.728894	-64.660906	81.403097	66.732169	-46.472427	15.657380	-0.305932	26.186843	-34.792752	-45.000000	7.733262	-40.060948	6.001240	63.642077	11.311637	-7.579397	32.692046	6.995848	44.827573	-2.786808	
3.1300	23.332827	43.970784	-2.808125	0.020504	1.012604	-0.055968	-26.663412	17.028298	-18.473091	9.856378	45.000000	-16.254467	55.048747	-64.361708	80.052505	65.745584	-46.852973	15.276219	-0.221718	26.210127	-35.037227	-45.000000	7.831099	-40.362364	5.814383	63.797369	11.689816	-6.807246	31.701621	7.368080	44.950698	-2.749535	
3.1400	23.285782	43.941363	-2.753716	0.020752	1.012467	-0.055996	-26.516553	17.141058	-18.288307	9.959814	45.000000	-16.193821	53.357683	-64.050686	78.698322	64.723508	-47.285011	14.906274	-0.107076	26.231336	-35.282672	-45.000000	7.923949	-40.680130	5.626810	63.970673	12.085394	-6.003387	30.716914	7.727219	45.070165	-2.697127	
3.1500	23.256635	43.926645	-2.709444	0.020995	1.012307	-0.056016	-26.368724	17.270038	-18.111397	10.076245	45.000000	-16.133000	51.676903	-63.734461	77.369968	63.666745	-47.762180	14.552943	0.028080	26.250121	-35.527974	-45.000000	8.010783	-41.014370	5.439589	64.159604	12.491379	-5.194762	29.750768	8.073077	45.173411	-2.629658	
3.1600	23.222717	43.923243	-2.662564	0.021233	1.012172	-0.056006	-26.228742	17.394254	-17.944805	10.188188	45.000000	-16.075603	49.989812	-63.413412	76.057159	62.568098	-48.282236	14.223645	0.176762	26.266724	-35.770198	-45.000000	8.092232	-41.356674	5.254442	64.358854	12.892568	-4.356003	28.788345	8.401810	45.232201	-2.565737	
3.1700	23.186784	43.926945	-2.609553	0.021465	1.012044	-0.055983	-26.088855	17.516884	-17.777195	10.298947	45.000000	-16.018196	48.324312	-63.084691	74.800309	61.430958	-48.841868	13.926233	0.330566	26.279620	-36.004314	-45.000000	8.164121	-41.706377	5.075976	64.561661	13.293170	-3.514471	27.837192	8.713001	45.241836	-2.498834	
3.1800	23.140046	43.942724	-2.540028	0.021693	1.011931	-0.055932	-25.952939	17.638254	-17.615692	10.408433	45.000000	-15.962209	46.667172	-62.757677	73.576297	60.260289	-49.443182	13.660784	0.484966	26.288026	-36.229876	-45.000000	8.224244	-42.068203	4.904893	64.766178	13.697570	-2.663297	26.881903	9.012647	45.206866	-2.426549	
3.1900	23.095307	43.962736	-2.455030	0.021912	1.011747	-0.055863	-25.797470	17.809423	-17.451291	10.559451	45.000000	-15.897521	44.931101	-62.428487	72.315555	59.043508	-50.113372	13.435134	0.637546	26.284160	-36.433529	-45.000000	8.247970	-42.476531	4.755179	64.981868	14.162969	-1.799715	25.923620	9.323620	45.158531	-2.347417	
3.2000	23.034053	43.998585	-2.342604	0.022146	1.011551	-0.055780	-25.639316	17.984146	-17.284293	10.713652	45.000000	-15.831617	43.209768	-62.119777	71.105758	57.804306	-50.809125	13.239495	0.763652	26.272440	-36.617147	-45.000000	8.248611	-42.900281	4.623174	65.191151	14.638971	-0.965774	24.978729	9.628379	45.074554	-2.267434	
3.2100	22.968218	44.039076	-2.215920	0.022392	1.011301	-0.055696	-25.469561	18.182569	-17.112041	10.887922	45.000000	-15.760269	41.473055	-61.803565	69.941899	56.529982	-51.552623	13.085307	0.877342	26.250644	-36.773056	-45.000000	8.219166	-43.340118	4.515891	65.388248	15.152918	-0.140361	24.042021	9.925134	44.963242	-2.181924	
3.2200	22.887484	44.101742	-2.070332	0.022668	1.011055	-0.055609	-25.310254	18.367864	-16.949465	11.050781	45.000000	-15.693432	39.788939	-61.502448	68.869930	55.247816	-52.310562	12.952303	0.966903	26.226386	-36.911544	-45.000000	8.182028	-43.760427	4.421947	65.555127	15.651488	0.646702	23.119429	10.197135	44.825872	-2.089319	
3.2300	22.799670	44.178136	-1.920383	0.022958	1.010795	-0.055521	-25.154761	18.554751	-16.794682	11.214637	45.000000	-15.627602	38.112309	-61.191675	67.865737	53.937889	-53.118617	12.857684	1.046071	26.199935	-37.030820	-45.000000	8.137623	-44.155844	4.342582	65.690915	16.148148	1.420098	22.201138	10.437986	44.657338	-1.988678	
3.2400	22.700499	44.275548	-1.771670	0.023267	1.010592	-0.055442	-25.019115	18.695973	-16.645664	11.340368	45.000000	-15.570335	36.540155	-60.887059	67.008469	52.626275	-53.945418	12.789336	1.097167	26.182686	-37.141928	-45.000000	8.118501	-44.465522	4.264343	65.764522	16.566109	2.120088	21.308286	10.621262	44.442605	-1.881629	
3.2500	22.618769	44.367367	-1.651589	0.023554	1.010368	-0.055366	-24.873109	18.858047	-16.492049	11.483880	45.000000	-15.507816	34.926610	-60.542884	66.174434	51.274032	-54.892792	12.780257	1.153306	26.172050	-37.239627	-45.000000	8.114796	-44.703276	4.193057	65.780739	16.958755	2.788818	20.423206	10.754608	44.202578	-1.762722	
3.2600	22.561989	44.473462	-1.561808	0.023830	1.010154	-0.055314	-24.726287	19.011185	-16.331136	11.620472	45.000000	-15.445179	33.385856	-60.209094	65.433313	49.932736	-55.897726	12.802862	1.187543	26.174754	-37.340142	-45.000000	8.147071	-44.852204	4.113591	65.739322	17.276713	3.334568	19.578737	10.836967	43.950043	-1.628673	
3.2700	22.538081	44.580423	-1.512931	0.024077	1.009924	-0.055276	-24.568599	19.184376	-16.163978	11.774196	45.000000	-15.377462	31.836622	-59.855947	64.730914	48.570170	-57.006156	12.873790	1.220684	26.186652	-37.445288	-45.000000	8.203732	-44.947280	4.026757	65.673417	17.561665	3.817169	18.751716	10.867077	43.687735	-1.485699	
3.2800	22.543993	44.699639	-1.501857	0.024319	1.009721	-0.055268	-24.416458	19.337000	-15.992889	11.911018	45.000000	-15.312896	30.388763	-59.517364	64.154392	47.224728	-58.136498	12.955017	1.239125	26.210677	-37.566439	-45.000000	8.294860	-44.988310	3.922504	65.592328	17.782507	4.204554	17.960244	10.845753	43.425248	-1.336988	
3.2900	22.575130	44.806733	-1.523173	0.024532	1.009512	-0.055268	-24.250524	19.512549	-15.812733	12.067708	45.000000	-15.241315	28.901220	-59.135416	63.657537	45.812793	-59.432023	13.096635	1.274321	26.240535	-37.692848	-45.000000	8.401750	-44.999996	3.811740	65.506919	17.983723	4.577937	17.169873	10.745983	43.154164	-1.179627	
